<?xml version="1.0" encoding="utf-8"?>
<!-- Generator: Adobe Illustrator 19.2.1, SVG Export Plug-In . SVG Version: 6.00 Build 0)  -->
<svg version="1.1" id="Capa_1" xmlns="http://www.w3.org/2000/svg" xmlns:xlink="http://www.w3.org/1999/xlink" x="0px" y="0px"
	 viewBox="0 0 435.1 435.1" style="enable-background:new 0 0 435.1 435.1;" xml:space="preserve">
<style type="text/css">
	.st0{fill:#C0C0C0;}
	.st1{fill:#FFFFFF;}
	.st2{fill:#666666;}
</style>
<g>
	<rect x="109.4" y="68.3" class="st0" width="216.3" height="298.4"/>
	<path class="st1" d="M352.1,22v391.1c0,12.1-9.8,22-22,22H105c-12.1,0-22-9.8-22-22V22c0-12.1,9.8-22,22-22h225.1
		C342.2,0,352.1,9.8,352.1,22z M325.7,366.7V236.4V68.3H222.8h-37.7h-75.8v131.1v65.3v102h141L325.7,366.7L325.7,366.7z
		 M229.1,399.1c0-6.4-5.2-11.6-11.6-11.6c-6.4,0-11.6,5.2-11.6,11.6c0,6.4,5.2,11.6,11.6,11.6C223.9,410.7,229.1,405.5,229.1,399.1z
		"/>
	<path class="st2" d="M217.5,387.5c6.4,0,11.6,5.2,11.6,11.6c0,6.4-5.2,11.6-11.6,11.6c-6.4,0-11.6-5.2-11.6-11.6
		C205.9,392.7,211.1,387.5,217.5,387.5z"/>
	<path class="st2" d="M244.5,42.3h-53.8c-4.1,0-7.5-3.4-7.5-7.5s3.4-7.5,7.5-7.5h53.8c4.1,0,7.5,3.4,7.5,7.5S248.6,42.3,244.5,42.3z
		"/>
</g>
</svg>
