<?xml version="1.0" encoding="utf-8"?>
<!-- Generator: Adobe Illustrator 19.2.1, SVG Export Plug-In . SVG Version: 6.00 Build 0)  -->
<svg version="1.1" id="Capa_1" xmlns="http://www.w3.org/2000/svg" xmlns:xlink="http://www.w3.org/1999/xlink" x="0px" y="0px"
	 viewBox="0 0 365.4 365.4" style="enable-background:new 0 0 365.4 365.4;" xml:space="preserve">
<style type="text/css">
	.st0{fill:#7C6655;}
	.st1{fill:#E77200;}
	.st2{fill:#51B7A6;}
	.st3{fill:#88C9B3;}
	.st4{fill:#E5DCC6;}
	.st5{fill:#FCF4DE;}
</style>
<path class="st0" d="M289.6,128.3v26.9c0,7.9-3.5,15.3-9.5,20.4s-14,7.2-21.7,5.8l-34.7-6.2l-2.6,14.8l34.7,6.2
	c2.4,0.4,4.9,0.6,7.3,0.6c9.7,0,19.1-3.4,26.6-9.7c9.5-7.9,14.9-19.5,14.9-31.9v-26.9L289.6,128.3L289.6,128.3z"/>
<path class="st1" d="M88.6,153.1c-15.6,0-28.4-12.7-28.4-28.4S73,96.4,88.6,96.4h16.7v56.7L88.6,153.1L88.6,153.1z"/>
<path class="st1" d="M260.1,153.1V96.4h16.7c15.6,0,28.4,12.7,28.4,28.4s-12.7,28.4-28.4,28.4L260.1,153.1L260.1,153.1z"/>
<path class="st2" d="M271,289.2v75.9H183V236.6l39.2,29.3l12.9-47.7c3.6,2.6,6.9,5.5,10,8.6C261.2,242.7,271,264.8,271,289.2z"/>
<path class="st3" d="M235.1,218.1l-12.9,47.7L183,236.6v-0.2c0-0.1,0-0.2-0.1-0.2l27.2-31C219.2,208.1,227.6,212.5,235.1,218.1z"/>
<path class="st4" d="M210.1,205.2l-27.2,31c-0.1,0-0.1-0.1-0.2-0.1s-0.1,0-0.2,0.1l-27.2-31c8.6-2.8,17.8-4.3,27.4-4.3
	S201.5,202.4,210.1,205.2z"/>
<polygon class="st3" points="183,236.6 183,365.1 182.7,365.1 182.7,236.4 "/>
<path class="st3" d="M182.9,236.2c0.1,0.1,0.1,0.1,0.1,0.2v0.2l-0.3-0.2L182.9,236.2z"/>
<path class="st3" d="M182.7,236.1c0.1,0,0.1,0,0.2,0.1l-0.2,0.2l-0.2-0.2C182.6,236.1,182.6,236.1,182.7,236.1z"/>
<polygon class="st3" points="182.7,236.4 182.7,365.1 182.4,365.1 182.4,236.6 "/>
<path class="st3" d="M182.4,236.4c0-0.1,0-0.2,0.1-0.2l0.2,0.2l-0.3,0.2L182.4,236.4L182.4,236.4z"/>
<path class="st3" d="M182.7,365.4c-0.2,0-0.3-0.1-0.3-0.3h0.3h0.3C183,365.3,182.8,365.4,182.7,365.4z"/>
<path class="st3" d="M155.3,205.2l27.2,31c-0.1,0.1-0.1,0.1-0.1,0.2v0.2l-39.2,29.3l-12.9-47.7C137.8,212.5,146.2,208.1,155.3,205.2
	z"/>
<path class="st2" d="M182.4,236.6v128.5H94.3v-75.9c0-29.2,14.1-55,35.9-71.1l12.9,47.7L182.4,236.6z"/>
<path class="st3" d="M203.7,296.4c-0.5,0-1.1-0.1-1.6-0.2c-0.5-0.1-1-0.3-1.5-0.5c-0.5-0.2-1-0.5-1.4-0.8c-0.4-0.3-0.9-0.6-1.2-1
	c-0.4-0.4-0.7-0.8-1-1.2c-0.3-0.4-0.5-0.9-0.8-1.4c-0.2-0.5-0.4-1-0.5-1.5c-0.1-0.5-0.2-1.1-0.2-1.6c0-0.5,0.1-1.1,0.2-1.6
	s0.3-1,0.5-1.5c0.2-0.5,0.5-1,0.8-1.4c0.3-0.4,0.6-0.9,1-1.2c0.4-0.4,0.8-0.7,1.2-1c0.4-0.3,0.9-0.6,1.4-0.8c0.5-0.2,1-0.4,1.5-0.5
	c1.1-0.2,2.1-0.2,3.2,0c0.5,0.1,1,0.3,1.5,0.5c0.5,0.2,1,0.5,1.4,0.8c0.4,0.3,0.9,0.6,1.2,1c1.5,1.5,2.4,3.6,2.4,5.8
	c0,0.5-0.1,1.1-0.2,1.6c-0.1,0.5-0.3,1-0.5,1.5c-0.2,0.5-0.5,1-0.8,1.4c-0.3,0.4-0.6,0.9-1,1.2c-0.4,0.4-0.8,0.7-1.2,1
	c-0.4,0.3-0.9,0.5-1.4,0.8c-0.5,0.2-1,0.4-1.5,0.5C204.8,296.3,204.3,296.4,203.7,296.4z"/>
<path class="st3" d="M203.7,335.1c-0.5,0-1.1-0.1-1.6-0.2c-0.5-0.1-1-0.3-1.5-0.5c-0.5-0.2-1-0.5-1.4-0.8c-0.4-0.3-0.9-0.6-1.2-1
	c-0.4-0.4-0.7-0.8-1-1.2c-0.3-0.4-0.5-0.9-0.8-1.4c-0.2-0.5-0.4-1-0.5-1.5c-0.1-0.5-0.2-1.1-0.2-1.6c0-0.5,0.1-1.1,0.2-1.6
	c0.1-0.5,0.3-1,0.5-1.5c0.2-0.5,0.5-1,0.8-1.4c0.3-0.4,0.6-0.9,1-1.2c0.4-0.4,0.8-0.7,1.2-1c0.4-0.3,0.9-0.6,1.4-0.8
	c0.5-0.2,1-0.4,1.5-0.5c1.1-0.2,2.1-0.2,3.2,0c0.5,0.1,1,0.3,1.5,0.5c0.5,0.2,1,0.5,1.4,0.8c0.4,0.3,0.9,0.6,1.2,1
	c1.5,1.5,2.4,3.6,2.4,5.8c0,0.5-0.1,1.1-0.2,1.6c-0.1,0.5-0.3,1-0.5,1.5c-0.2,0.5-0.5,1-0.8,1.4c-0.3,0.4-0.6,0.9-1,1.2
	c-0.4,0.4-0.8,0.7-1.2,1c-0.4,0.3-0.9,0.5-1.4,0.8c-0.5,0.2-1,0.4-1.5,0.5C204.8,335,204.3,335.1,203.7,335.1z"/>
<path class="st5" d="M221.1,189.9l2.6-14.8l22.7,4c12.3-14.6,19.8-33.4,19.8-53.9c0-46.1-37.4-83.5-83.5-83.5s-83.5,37.4-83.5,83.5
	s37.4,83.5,83.5,83.5c18.9,0,36.2-6.2,50.2-16.8L221.1,189.9z"/>
<path class="st0" d="M152.1,120c-0.5,0-1.1-0.1-1.6-0.2c-0.5-0.1-1-0.3-1.5-0.5c-0.5-0.2-1-0.5-1.4-0.8c-0.4-0.3-0.9-0.6-1.2-1
	c-0.4-0.4-0.7-0.8-1-1.2c-0.3-0.4-0.6-0.9-0.8-1.4c-0.2-0.5-0.4-1-0.5-1.5s-0.2-1.1-0.2-1.6c0-2.2,0.9-4.3,2.4-5.8
	c0.4-0.4,0.8-0.7,1.2-1c0.4-0.3,0.9-0.5,1.4-0.8c0.5-0.2,1-0.4,1.5-0.5c2.7-0.5,5.5,0.3,7.4,2.2c1.5,1.5,2.4,3.6,2.4,5.8
	c0,2.2-0.9,4.3-2.4,5.8C156.4,119.1,154.3,120,152.1,120z"/>
<path class="st0" d="M213.2,120c-0.5,0-1.1-0.1-1.6-0.2c-0.5-0.1-1-0.3-1.5-0.5c-0.5-0.2-1-0.5-1.4-0.8c-0.4-0.3-0.9-0.6-1.2-1
	c-0.4-0.4-0.7-0.8-1-1.2c-0.3-0.4-0.6-0.9-0.8-1.4c-0.2-0.5-0.4-1-0.5-1.5c-0.1-0.5-0.2-1.1-0.2-1.6c0-0.5,0.1-1.1,0.2-1.6
	c0.1-0.5,0.3-1,0.5-1.5c0.2-0.5,0.5-1,0.8-1.4c0.3-0.5,0.6-0.9,1-1.3c0.4-0.4,0.8-0.7,1.2-1c0.4-0.3,0.9-0.5,1.4-0.8
	c0.5-0.2,1-0.4,1.5-0.5c1-0.2,2.1-0.2,3.2,0c0.5,0.1,1,0.3,1.5,0.5c0.5,0.2,1,0.5,1.4,0.8c0.4,0.3,0.9,0.6,1.2,1
	c0.4,0.4,0.7,0.8,1,1.3c0.3,0.4,0.5,0.9,0.8,1.4c0.2,0.5,0.4,1,0.5,1.5c0.1,0.5,0.2,1.1,0.2,1.6c0,0.5-0.1,1.1-0.2,1.6
	c-0.1,0.5-0.3,1-0.5,1.5c-0.2,0.5-0.5,1-0.8,1.4c-0.3,0.4-0.6,0.9-1,1.2c-0.4,0.4-0.8,0.7-1.2,1c-0.4,0.3-0.9,0.6-1.4,0.8
	c-0.5,0.2-1,0.4-1.5,0.5C214.3,119.9,213.8,120,213.2,120z"/>
<rect x="174.8" y="236.6" class="st3" width="15.3" height="128.5"/>
<circle class="st1" cx="214.2" cy="181.3" r="13.2"/>
</svg>
